<svg xmlns="http://www.w3.org/2000/svg" viewBox="0 0 64 64">
  <defs>
    <linearGradient id="bg" x1="8" x2="56" y1="8" y2="56" gradientUnits="userSpaceOnUse">
      <stop stop-color="#7d2436" />
      <stop offset="1" stop-color="#224737" />
    </linearGradient>
    <linearGradient id="petal" x1="18" x2="46" y1="16" y2="38" gradientUnits="userSpaceOnUse">
      <stop stop-color="#f5e8d7" />
      <stop offset="1" stop-color="#d3a85d" />
    </linearGradient>
  </defs>
  <rect width="64" height="64" rx="18" fill="url(#bg)" />
  <path
    fill="url(#petal)"
    d="M32 14c6.8 0 12.4 5.4 12.4 12.2 0 8.8-7.7 14.4-12.4 20.8-4.7-6.4-12.4-12-12.4-20.8C19.6 19.4 25.2 14 32 14Zm0 5.2c-3.9 0-7 3.1-7 7 0 3.8 2.9 7.1 7 11.4 4.1-4.3 7-7.6 7-11.4 0-3.9-3.1-7-7-7Z"
  />
  <path
    fill="#f5e8d7"
    d="M31 38.5c1.7 0 3 1.3 3 3v8.7h4.8a2 2 0 1 1 0 4H25.2a2 2 0 1 1 0-4H30v-8.7c0-1.7 1.3-3 3-3Z"
  />
</svg>
